<?xml version="1.0" encoding="utf-8"?>
<!-- Generator: Adobe Illustrator 17.1.0, SVG Export Plug-In . SVG Version: 6.00 Build 0)  -->
<!DOCTYPE svg PUBLIC "-//W3C//DTD SVG 1.1//EN" "http://www.w3.org/Graphics/SVG/1.1/DTD/svg11.dtd">
<svg version="1.1" id="GRP_VINE_3_xA0_Image_1_" xmlns="http://www.w3.org/2000/svg" xmlns:xlink="http://www.w3.org/1999/xlink"
	 x="0px" y="0px" viewBox="0 164 612 338" enable-background="new 0 164 612 338" xml:space="preserve">
<path fill="#FFFFFF" d="M-102.7,661.9"/>
<path fill="#141328" d="M235.2,371.6c11.6-1.7,20.1,2.9,26.7,11.3c5.6,7.3,1.1,18.2-7.3,21.9c-7.7,3.5-14.7,0.9-22.7,0.5
	c0.2,2.2,0.1,4.3,0.6,6.3c1.4,5.9,3.2,11.8,4.6,17.7c0.4,1.5,0.8,3.4,0.1,4.6c-1.1,2-3,3.5-4.6,5.3c-1.6-1.6-4.2-2.9-4.8-4.9
	c-2.9-9.4-7.1-18.9-7.4-28.5c-0.4-11.7-0.1-23.4-0.7-35.2c-0.6-10.7,4.6-20,11.8-27.2c8.6-8.5,19.7-12.6,32.2-11.7
	c2,0.2,4,0.3,5.8,0.4c-1.8-4.6-3.9-8.8-5.2-13.2c-2.7-9.3-5.6-18.6-7.4-28.1c-1-5.4-4-9.2-7-13.2c-6.2-8.2-10.1-17.6-12.9-27.4
	c-2.3-8.1-4.8-16.1-5.9-24.4c-1.4-10.5,1.6-20.2,7-29.5c3.3-5.7,5.2-12.2,7.7-18.4c0.3-0.8,0.7-1.5,1.4-2.7
	c3.1,3.2,3.1,6.8,2.8,10.3c-0.8,11.6-2.4,23.3-2.4,34.9c0,13.2,5.8,25.2,10,38.3c2.6-2.4,4.3-4.1,6.1-5.7c7.7-6.5,16.9-6,24.4,0.6
	c5.6,4.9,8.7,11.3,11,18c3.7,10.8-5.6,22.1-16.8,21.2c-1-0.1-2-0.1-3,0c-4.8,0.5-5.1,0.9-3.9,5.7c3.9,16,11.6,30,22,42.6
	c12.2,14.8,19.6,32.1,26.1,49.8c0.7,2,2.1,3.7,3.5,6c-0.1,0.2-0.9,1.5-0.7,2.5c1.2,7.1,2.6,14.2,4.2,22.5c1.6-2.8,2.8-4.7,3.9-6.7
	c9-15.6,17.9-31.2,27-46.7c0.9-1.6,3.5-3.5,4.9-3.2c2.2,0.4,4.9,2,6.1,3.9c2.6,4,2.1,8.5,0.5,13c-5.3,14.5-11.5,28.7-20.8,41
	c-5.7,7.6-6.4,16.1-8,25.6c3-1.4,5.4-2.3,7.7-3.6c9.3-5.3,18.5-10.7,27.8-16.1c2.8-1.7,5.5-1.5,8.2,0.2c3.4,2.1,6.8,4.1,6.7,8.8
	c0,6.6,1.6,8.1,7.7,5.6c8.7-3.5,17.1-7.8,25.7-11.8c1.8-0.9,3.7-1.7,5.6-2.4c6.2-2.3,11.5-1,15.4,4.4c2.2,3,4.2,3,7.3,1.3
	c6.9-3.8,14.4-5.8,22.2-3.7c3.3,0.9,6.8,2.3,9.2,4.6c13.4,12.3,29.2,12.9,45.8,10.2c1.2-0.2,2.5-2,3.1-3.4c1.5-3.3,2.3-6.8,3.8-10.1
	c1.9-3.9,4.8-7.6,9.5-7.2c5,0.4,8.8,3.7,11.3,8.1c2.9,5,4.8,10.3,2,16.8c5.2,0.4,9.7,0.6,14,1.3c2,0.3,5.1,1.5,5.5,3
	c0.6,1.9-0.3,5.2-1.7,6.6c-2.2,2.3-5.3,4.2-8.3,5.1c-8.1,2.4-16,0.9-23.7-2.7c-2.3-1.1-5.4-1.5-7.9-1c-22,4.4-42,1.1-59.5-14
	c-2-1.7-6.2-2.2-8.8-1.3c-5,1.7-9.8,4.3-14.3,7.2c-6.2,4-13.6,2.3-16-4.7c-1.4-4.1-2.7-4.8-6.7-2.9c-9.4,4.5-18.8,9.2-28.7,12.2
	c-9.3,2.9-18.1-0.1-24.7-7.7c-1.8-2-3-2.5-5.4-1.1c-6.8,3.9-13.8,7.5-20.7,11.2c-8.1,4.5-16.4,7.2-25.6,3.3c-2.1-0.9-4.7-1-7.1-1.1
	c-4.5-0.2-7.1-2.3-7.5-6.8c-1.8-22.5-5.5-44.7-11.7-66.4c-5.4-18.9-16.7-33.7-33.7-43.7c-8.3-4.9-16.6-3.6-24.4,2.3
	C239.2,355.1,234.7,361.7,235.2,371.6z M250.9,395.9c2.8-1.1,5.3-5.8,3.5-7.3c-3.7-3.1-7.8-5.8-12.1-7.8c-2.7-1.2-4.6,1.3-3.5,4.4
	c0.8,2.5,1.9,4.9,3.1,7.2C243.8,396.4,246.9,397.5,250.9,395.9z M275.9,262.6c-3.4,5-4.2,10.2-2.7,15.1c0.6,1.8,4.9,3.1,7.5,3.3
	c3,0.2,3.9-2.7,3.4-5.4C283.4,270.4,280.7,266.3,275.9,262.6z"/>
<path fill="#141328" d="M219,454.6c3.5-1.6,6.5-2.6,9-4.2c4.5-2.9,8.5-6.8,13.2-9.1c6.1-3,12.7-4.8,19.1-7.1
	c3.8-1.4,7.7-2.6,11.3-4.5c6.7-3.4,13.7-3.5,20.8-2.2c7.4,1.3,11.2,5.4,11,12.8c-0.2,8.3-1,16.8-8.3,22.4c-2.2,1.6-5.7,2.7-8.3,2.3
	c-6.4-1-12.6-3-17.6-7.8c-3.7-3.6-4.5-3-8.4,0.5c-9,8.1-14.3,18.6-20.1,29c-1.4,2.5-5.9,3.1-9,4.6c-0.5-1.6-1.7-3.4-1.3-4.7
	c1.5-5.3,3.7-10.4,5.4-15.6c0.6-1.9,0.7-3.9,1.1-6.7c-2.6,1.2-4.6,1.9-6.4,3.1c-4.8,3.2-10.2,3.9-15.7,3.6
	c-7.1-0.4-11-4.1-12.5-11.2c-0.5-2.5-0.6-5.2-1-7.8c-0.4-2.6-0.8-5.1-1.3-7.8c-3.5-0.9-5.9,0.1-7.3,3.1c-3.2,6.7-7.8,12.2-13.5,16.8
	c-6,4.9-12.9,6.3-20.2,5.4c-1.9-0.2-4.1-3-4.9-5.2c-0.5-1.3,0.9-4.1,2.3-5.3c5.7-4.6,11.9-8.6,17.7-13.1c1.6-1.2,2.9-3,3.7-4.8
	c3.4-7.5,10.2-9.5,17.2-9.4c5.8,0.1,11.6,1.8,17.2,3.6c4,1.4,6.4,4.8,6.1,9.5C218.3,447.9,218.7,450.6,219,454.6z M271.5,448.1
	c2.9,1.1,5.8,2,8.5,3.1c7.3,3.1,9.1,2.2,10.2-5.5c0.6-4.5-3.5-8.8-7.4-7.5C278,440,273.9,442.8,271.5,448.1z"/>
<path fill="#141328" d="M133.3,446.9c-5.2-1-10.6-1.5-15.7-3.1c-3.4-1.1-6.7-3.4-9.2-5.9c-1.4-1.4-2.2-5.1-1.4-6.5
	c1.3-2.1,4.3-4.1,6.8-4.5c3-0.4,6.2,0.9,9.3,1.6c7.3,1.6,14.6,3.4,21.9,5c4.8,1,9.8,1.4,14.5,2.7c5.8,1.6,6.4,5.4,2.9,10.1
	c-4.6,6.3-10.3,10.4-18.1,11.7c-1.8,0.3-3.2,2.4-5.1,3.1c-14.2,5.7-28.7,10.7-44.3,7.6c-9.5-1.9-16.3-8.4-22.6-15.5
	c-6.4-7.3-9.5-16.2-9.7-25.4c-0.3-12.1,6.3-20.7,16.8-27c9.1-5.5,18.8-7.3,28.7-6.3c7.5,0.8,15.5,2.6,18.6,11.3c0.5,1.4,0,3.2,0,4.8
	c-1.7-0.1-3.7,0.4-5.1-0.4c-8.2-4.3-16.6-6.7-25.9-4c-8.5,2.4-17.2,7.8-18.5,18.4c-0.8,6.3,2.2,11.2,5.2,16.2
	c7.4,12.5,15.4,16,29.8,14.2C120.1,454.3,127.3,452.4,133.3,446.9z"/>
<path fill="#141328" d="M386.3,401.8c2.3-0.1,3.7-0.3,5.1-0.1c6.8,0.8,12.6,10.5,10.3,16.8c-1.2,3.3-5.5,5.6-8.9,4.6
	c-6.1-1.8-11.5-10.1-9.8-15.9C383.8,405.2,385.3,403.5,386.3,401.8z"/>
</svg>
