<?xml version="1.0" encoding="utf-8"?>
<!-- Generator: Adobe Illustrator 17.1.0, SVG Export Plug-In . SVG Version: 6.00 Build 0)  -->
<!DOCTYPE svg PUBLIC "-//W3C//DTD SVG 1.1//EN" "http://www.w3.org/Graphics/SVG/1.1/DTD/svg11.dtd">
<svg version="1.1" id="GRP_VINE_3_xA0_Image_1_" xmlns="http://www.w3.org/2000/svg" xmlns:xlink="http://www.w3.org/1999/xlink"
	 x="0px" y="0px" viewBox="0 0 168.48 150.96" enable-background="new 0 0 168.48 150.96" xml:space="preserve">
<path fill="#FFFFFF" d="M-28.26,148.672"/>
<path fill="#141328" d="M64.752,68.769c3.193-0.463,5.539,0.786,7.338,3.112c1.555,2.011,0.292,5.001-2.006,6.033
	c-2.123,0.954-4.051,0.257-6.251,0.127c0.051,0.592,0.03,1.178,0.163,1.727c0.395,1.631,0.868,3.243,1.27,4.872
	c0.101,0.409,0.211,0.943,0.034,1.264c-0.302,0.549-0.826,0.975-1.258,1.453c-0.452-0.442-1.15-0.807-1.314-1.338
	c-0.801-2.589-1.959-5.207-2.04-7.844c-0.099-3.216-0.018-6.447-0.197-9.68c-0.164-2.957,1.266-5.519,3.258-7.494
	c2.368-2.347,5.424-3.478,8.864-3.213c0.544,0.042,1.089,0.075,1.6,0.11c-0.509-1.28-1.07-2.429-1.426-3.638
	c-0.754-2.562-1.555-5.128-2.034-7.747c-0.274-1.5-1.098-2.532-1.929-3.63c-1.717-2.27-2.784-4.844-3.545-7.548
	c-0.625-2.219-1.331-4.445-1.636-6.717c-0.388-2.883,0.438-5.569,1.919-8.117c0.913-1.57,1.428-3.371,2.127-5.066
	c0.086-0.209,0.204-0.404,0.381-0.748c0.86,0.884,0.841,1.87,0.773,2.841c-0.226,3.206-0.672,6.41-0.672,9.614
	c0,3.637,1.588,6.93,2.763,10.535c0.703-0.654,1.172-1.13,1.682-1.557c2.125-1.783,4.641-1.653,6.727,0.17
	c1.549,1.354,2.404,3.12,3.036,4.954c1.022,2.966-1.534,6.071-4.632,5.834c-0.277-0.021-0.56-0.023-0.836,0.004
	c-1.325,0.127-1.406,0.252-1.086,1.58c1.062,4.403,3.197,8.272,6.052,11.731c3.37,4.081,5.397,8.83,7.189,13.723
	c0.199,0.543,0.587,1.017,0.961,1.649c-0.019,0.064-0.237,0.404-0.187,0.7c0.329,1.961,0.715,3.911,1.145,6.199
	c0.45-0.775,0.759-1.303,1.064-1.832c2.469-4.292,4.919-8.594,7.433-12.859c0.257-0.436,0.951-0.955,1.35-0.888
	c0.619,0.105,1.353,0.556,1.69,1.083c0.705,1.102,0.579,2.343,0.129,3.575c-1.458,3.996-3.163,7.891-5.721,11.296
	c-1.563,2.082-1.773,4.426-2.208,7.045c0.817-0.38,1.499-0.641,2.127-0.999c2.559-1.458,5.105-2.938,7.646-4.427
	c0.777-0.455,1.506-0.413,2.254,0.046c0.932,0.572,1.859,1.136,1.858,2.422c-0.002,1.818,0.437,2.228,2.125,1.543
	c2.402-0.974,4.718-2.16,7.074-3.247c0.508-0.234,1.023-0.455,1.547-0.65c1.706-0.636,3.16-0.282,4.236,1.213
	c0.594,0.825,1.164,0.832,2.022,0.364c1.905-1.039,3.956-1.608,6.118-1.005c0.897,0.25,1.863,0.644,2.532,1.26
	c3.682,3.387,8.048,3.545,12.611,2.817c0.33-0.053,0.683-0.559,0.849-0.933c0.401-0.901,0.623-1.885,1.054-2.769
	c0.523-1.072,1.318-2.088,2.613-1.98c1.371,0.114,2.416,1.029,3.1,2.225c0.791,1.38,1.32,2.837,0.544,4.612
	c1.432,0.121,2.663,0.155,3.866,0.359c0.563,0.095,1.402,0.418,1.523,0.817c0.161,0.532-0.07,1.419-0.468,1.827
	c-0.61,0.626-1.453,1.153-2.292,1.404c-2.243,0.671-4.403,0.25-6.511-0.746c-0.634-0.299-1.489-0.411-2.175-0.273
	c-6.063,1.215-11.567,0.291-16.387-3.855c-0.538-0.463-1.716-0.594-2.426-0.36c-1.382,0.457-2.706,1.183-3.935,1.98
	c-1.703,1.104-3.743,0.63-4.392-1.297c-0.38-1.128-0.748-1.321-1.858-0.792c-2.588,1.233-5.185,2.526-7.911,3.367
	c-2.569,0.792-4.991-0.017-6.808-2.114c-0.485-0.56-0.837-0.686-1.499-0.31c-1.875,1.065-3.796,2.051-5.686,3.09
	c-2.236,1.23-4.502,1.992-7.051,0.898c-0.59-0.253-1.3-0.272-1.959-0.307c-1.25-0.067-1.952-0.624-2.054-1.87
	c-0.507-6.19-1.521-12.297-3.227-18.266c-1.487-5.204-4.597-9.284-9.268-12.04c-2.289-1.351-4.566-1-6.705,0.642
	C65.852,64.233,64.62,66.025,64.752,68.769z M69.06,75.46c0.778-0.299,1.467-1.583,0.967-1.996
	c-1.016-0.841-2.145-1.609-3.344-2.144c-0.752-0.336-1.253,0.356-0.965,1.208c0.229,0.678,0.531,1.336,0.858,1.973
	C67.129,75.577,67.965,75.88,69.06,75.46z M75.951,38.751c-0.945,1.369-1.167,2.814-0.733,4.167c0.157,0.491,1.338,0.86,2.075,0.905
	c0.814,0.05,1.066-0.735,0.948-1.482C78.014,40.906,77.284,39.766,75.951,38.751z"/>
<path fill="#141328" d="M60.292,91.608c0.961-0.437,1.777-0.702,2.476-1.15c1.243-0.796,2.329-1.877,3.637-2.518
	c1.67-0.818,3.498-1.31,5.252-1.958c1.048-0.387,2.124-0.728,3.117-1.227c1.852-0.932,3.767-0.963,5.732-0.604
	c2.03,0.371,3.084,1.494,3.03,3.523c-0.06,2.287-0.266,4.632-2.295,6.162c-0.602,0.453-1.569,0.751-2.297,0.642
	c-1.774-0.266-3.478-0.829-4.841-2.155c-1.029-1.001-1.234-0.821-2.306,0.139c-2.491,2.233-3.948,5.116-5.525,7.97
	c-0.373,0.675-1.622,0.866-2.469,1.28c-0.133-0.436-0.47-0.931-0.363-1.297c0.421-1.45,1.006-2.852,1.476-4.29
	c0.168-0.515,0.183-1.081,0.302-1.846c-0.715,0.338-1.277,0.523-1.75,0.842c-1.321,0.892-2.814,1.079-4.318,0.994
	c-1.957-0.111-3.027-1.131-3.44-3.076c-0.149-0.7-0.172-1.426-0.275-2.138c-0.102-0.706-0.232-1.409-0.354-2.139
	c-0.956-0.258-1.614,0.031-2.009,0.865c-0.873,1.84-2.135,3.353-3.714,4.633c-1.647,1.336-3.563,1.734-5.572,1.485
	c-0.525-0.065-1.141-0.837-1.36-1.419c-0.137-0.363,0.259-1.142,0.644-1.448c1.58-1.253,3.267-2.371,4.871-3.596
	c0.43-0.329,0.807-0.814,1.032-1.308c0.94-2.064,2.8-2.614,4.733-2.579c1.586,0.028,3.206,0.487,4.729,0.999
	c1.105,0.372,1.756,1.315,1.692,2.628C60.092,89.766,60.216,90.516,60.292,91.608z M74.753,89.822
	c0.811,0.296,1.591,0.547,2.345,0.861c2.021,0.842,2.498,0.594,2.797-1.506c0.177-1.243-0.957-2.426-2.027-2.054
	C76.521,87.591,75.396,88.365,74.753,89.822z"/>
<path fill="#141328" d="M36.684,89.496c-1.427-0.268-2.918-0.411-4.311-0.859c-0.934-0.301-1.838-0.924-2.543-1.619
	c-0.379-0.373-0.618-1.393-0.375-1.778c0.369-0.587,1.176-1.136,1.86-1.228c0.821-0.11,1.712,0.261,2.567,0.451
	c2.014,0.448,4.021,0.935,6.039,1.363c1.326,0.282,2.696,0.39,3.995,0.757c1.588,0.448,1.771,1.486,0.807,2.782
	c-1.279,1.721-2.847,2.851-4.989,3.226c-0.499,0.087-0.893,0.66-1.394,0.862c-3.91,1.575-7.893,2.952-12.187,2.096
	c-2.614-0.521-4.497-2.301-6.209-4.257c-1.761-2.011-2.618-4.452-2.673-7c-0.072-3.338,1.734-5.698,4.622-7.435
	c2.499-1.503,5.168-2.016,7.914-1.732c2.051,0.212,4.265,0.722,5.134,3.101c0.143,0.393,0.009,0.887,0.003,1.334
	c-0.475-0.025-1.028,0.101-1.411-0.099c-2.265-1.188-4.572-1.835-7.14-1.108c-2.337,0.661-4.736,2.159-5.092,5.066
	c-0.212,1.732,0.606,3.087,1.419,4.459c2.031,3.428,4.249,4.393,8.209,3.91C33.068,91.527,35.034,91.007,36.684,89.496z"/>
<path fill="#141328" d="M106.355,77.073c0.629-0.018,1.026-0.08,1.409-0.033c1.859,0.229,3.481,2.885,2.849,4.634
	c-0.331,0.917-1.509,1.549-2.438,1.273c-1.685-0.501-3.16-2.769-2.687-4.375C105.651,78.016,106.078,77.538,106.355,77.073z"/>
</svg>
