<svg xmlns="http://www.w3.org/2000/svg" viewBox="0 164 612 338" enable-background="new 0 164 612 338"><path fill="#fff" d="M-102.7 661.9"/><path fill="#141328" d="M235.2 371.6c11.6-1.7 20.1 2.9 26.7 11.3 5.6 7.3 1.1 18.2-7.3 21.9-7.7 3.5-14.7.9-22.7.5.2 2.2.1 4.3.6 6.3l4.6 17.7c.4 1.5.8 3.4.1 4.6-1.1 2-3 3.5-4.6 5.3-1.6-1.6-4.2-2.9-4.8-4.9-2.9-9.4-7.1-18.9-7.4-28.5-.4-11.7-.1-23.4-.7-35.2-.6-10.7 4.6-20 11.8-27.2 8.6-8.5 19.7-12.6 32.2-11.7 2 .2 4 .3 5.8.4-1.8-4.6-3.9-8.8-5.2-13.2-2.7-9.3-5.6-18.6-7.4-28.1-1-5.4-4-9.2-7-13.2-6.2-8.2-10.1-17.6-12.9-27.4-2.3-8.1-4.8-16.1-5.9-24.4-1.4-10.5 1.6-20.2 7-29.5 3.3-5.7 5.2-12.2 7.7-18.4.3-.8.7-1.5 1.4-2.7 3.1 3.2 3.1 6.8 2.8 10.3-.8 11.6-2.4 23.3-2.4 34.9 0 13.2 5.8 25.2 10 38.3 2.6-2.4 4.3-4.1 6.1-5.7 7.7-6.5 16.9-6 24.4.6 5.6 4.9 8.7 11.3 11 18 3.7 10.8-5.6 22.1-16.8 21.2-1-.1-2-.1-3 0-4.8.5-5.1.9-3.9 5.7 3.9 16 11.6 30 22 42.6 12.2 14.8 19.6 32.1 26.1 49.8.7 2 2.1 3.7 3.5 6-.1.2-.9 1.5-.7 2.5 1.2 7.1 2.6 14.2 4.2 22.5 1.6-2.8 2.8-4.7 3.9-6.7 9-15.6 17.9-31.2 27-46.7.9-1.6 3.5-3.5 4.9-3.2 2.2.4 4.9 2 6.1 3.9 2.6 4 2.1 8.5.5 13-5.3 14.5-11.5 28.7-20.8 41-5.7 7.6-6.4 16.1-8 25.6 3-1.4 5.4-2.3 7.7-3.6 9.3-5.3 18.5-10.7 27.8-16.1 2.8-1.7 5.5-1.5 8.2.2 3.4 2.1 6.8 4.1 6.7 8.8 0 6.6 1.6 8.1 7.7 5.6 8.7-3.5 17.1-7.8 25.7-11.8 1.8-.9 3.7-1.7 5.6-2.4 6.2-2.3 11.5-1 15.4 4.4 2.2 3 4.2 3 7.3 1.3 6.9-3.8 14.4-5.8 22.2-3.7 3.3.9 6.8 2.3 9.2 4.6 13.4 12.3 29.2 12.9 45.8 10.2 1.2-.2 2.5-2 3.1-3.4l3.8-10.1c1.9-3.9 4.8-7.6 9.5-7.2 5 .4 8.8 3.7 11.3 8.1 2.9 5 4.8 10.3 2 16.8 5.2.4 9.7.6 14 1.3 2 .3 5.1 1.5 5.5 3 .6 1.9-.3 5.2-1.7 6.6-2.2 2.3-5.3 4.2-8.3 5.1-8.1 2.4-16 .9-23.7-2.7-2.3-1.1-5.4-1.5-7.9-1-22 4.4-42 1.1-59.5-14-2-1.7-6.2-2.2-8.8-1.3-5 1.7-9.8 4.3-14.3 7.2-6.2 4-13.6 2.3-16-4.7-1.4-4.1-2.7-4.8-6.7-2.9-9.4 4.5-18.8 9.2-28.7 12.2-9.3 2.9-18.1-.1-24.7-7.7-1.8-2-3-2.5-5.4-1.1-6.8 3.9-13.8 7.5-20.7 11.2-8.1 4.5-16.4 7.2-25.6 3.3-2.1-.9-4.7-1-7.1-1.1-4.5-.2-7.1-2.3-7.5-6.8-1.8-22.5-5.5-44.7-11.7-66.4-5.4-18.9-16.7-33.7-33.7-43.7-8.3-4.9-16.6-3.6-24.4 2.3-7 5.8-11.5 12.4-11 22.3zm15.7 24.3c2.8-1.1 5.3-5.8 3.5-7.3-3.7-3.1-7.8-5.8-12.1-7.8-2.7-1.2-4.6 1.3-3.5 4.4.8 2.5 1.9 4.9 3.1 7.2 1.9 4 5 5.1 9 3.5zm25-133.3c-3.4 5-4.2 10.2-2.7 15.1.6 1.8 4.9 3.1 7.5 3.3 3 .2 3.9-2.7 3.4-5.4-.7-5.2-3.4-9.3-8.2-13zM219 454.6c3.5-1.6 6.5-2.6 9-4.2 4.5-2.9 8.5-6.8 13.2-9.1 6.1-3 12.7-4.8 19.1-7.1 3.8-1.4 7.7-2.6 11.3-4.5 6.7-3.4 13.7-3.5 20.8-2.2 7.4 1.3 11.2 5.4 11 12.8-.2 8.3-1 16.8-8.3 22.4-2.2 1.6-5.7 2.7-8.3 2.3-6.4-1-12.6-3-17.6-7.8-3.7-3.6-4.5-3-8.4.5-9 8.1-14.3 18.6-20.1 29-1.4 2.5-5.9 3.1-9 4.6-.5-1.6-1.7-3.4-1.3-4.7 1.5-5.3 3.7-10.4 5.4-15.6.6-1.9.7-3.9 1.1-6.7-2.6 1.2-4.6 1.9-6.4 3.1-4.8 3.2-10.2 3.9-15.7 3.6-7.1-.4-11-4.1-12.5-11.2-.5-2.5-.6-5.2-1-7.8-.4-2.6-.8-5.1-1.3-7.8-3.5-.9-5.9.1-7.3 3.1-3.2 6.7-7.8 12.2-13.5 16.8-6 4.9-12.9 6.3-20.2 5.4-1.9-.2-4.1-3-4.9-5.2-.5-1.3.9-4.1 2.3-5.3 5.7-4.6 11.9-8.6 17.7-13.1 1.6-1.2 2.9-3 3.7-4.8 3.4-7.5 10.2-9.5 17.2-9.4 5.8.1 11.6 1.8 17.2 3.6 4 1.4 6.4 4.8 6.1 9.5 0 3.1.4 5.8.7 9.8zm52.5-6.5c2.9 1.1 5.8 2 8.5 3.1 7.3 3.1 9.1 2.2 10.2-5.5.6-4.5-3.5-8.8-7.4-7.5-4.8 1.8-8.9 4.6-11.3 9.9zM133.3 446.9c-5.2-1-10.6-1.5-15.7-3.1-3.4-1.1-6.7-3.4-9.2-5.9-1.4-1.4-2.2-5.1-1.4-6.5 1.3-2.1 4.3-4.1 6.8-4.5 3-.4 6.2.9 9.3 1.6l21.9 5c4.8 1 9.8 1.4 14.5 2.7 5.8 1.6 6.4 5.4 2.9 10.1-4.6 6.3-10.3 10.4-18.1 11.7-1.8.3-3.2 2.4-5.1 3.1-14.2 5.7-28.7 10.7-44.3 7.6-9.5-1.9-16.3-8.4-22.6-15.5-6.4-7.3-9.5-16.2-9.7-25.4-.3-12.1 6.3-20.7 16.8-27 9.1-5.5 18.8-7.3 28.7-6.3 7.5.8 15.5 2.6 18.6 11.3.5 1.4 0 3.2 0 4.8-1.7-.1-3.7.4-5.1-.4-8.2-4.3-16.6-6.7-25.9-4-8.5 2.4-17.2 7.8-18.5 18.4-.8 6.3 2.2 11.2 5.2 16.2 7.4 12.5 15.4 16 29.8 14.2 7.9-.7 15.1-2.6 21.1-8.1zM386.3 401.8c2.3-.1 3.7-.3 5.1-.1 6.8.8 12.6 10.5 10.3 16.8-1.2 3.3-5.5 5.6-8.9 4.6-6.1-1.8-11.5-10.1-9.8-15.9.8-2 2.3-3.7 3.3-5.4z"/></svg>